<?xml version="1.0" encoding="UTF-8" standalone="no"?>
<!-- Created with Inkscape (http://www.inkscape.org/) -->

<svg
   width="215mm"
   height="50mm"
   viewBox="0 0 215 50"
   version="1.1"
   id="svg5"
   inkscape:version="1.2.2 (b0a8486541, 2022-12-01)"
   sodipodi:docname="lydia-horizonal-white.svg"
   inkscape:export-filename="lydia-horizonal-white.png"
   inkscape:export-xdpi="130.05"
   inkscape:export-ydpi="130.05"
   xmlns:inkscape="http://www.inkscape.org/namespaces/inkscape"
   xmlns:sodipodi="http://sodipodi.sourceforge.net/DTD/sodipodi-0.dtd"
   xmlns="http://www.w3.org/2000/svg"
   xmlns:svg="http://www.w3.org/2000/svg"
   xmlns:rdf="http://www.w3.org/1999/02/22-rdf-syntax-ns#"
   xmlns:cc="http://creativecommons.org/ns#"
   xmlns:dc="http://purl.org/dc/elements/1.1/">
  <title
     id="title148">Lydia Project Icon</title>
  <sodipodi:namedview
     id="namedview7"
     pagecolor="#ffffff"
     bordercolor="#000000"
     borderopacity="0.25"
     inkscape:showpageshadow="2"
     inkscape:pageopacity="0.0"
     inkscape:pagecheckerboard="0"
     inkscape:deskcolor="#d1d1d1"
     inkscape:document-units="mm"
     showgrid="false"
     inkscape:zoom="0.87183321"
     inkscape:cx="-216.21108"
     inkscape:cy="164.5957"
     inkscape:window-width="1600"
     inkscape:window-height="827"
     inkscape:window-x="0"
     inkscape:window-y="0"
     inkscape:window-maximized="1"
     inkscape:current-layer="layer1" />
  <defs
     id="defs2" />
  <g
     inkscape:label="icon"
     inkscape:groupmode="layer"
     id="layer1">
    <g
       aria-label="Lydia Project"
       id="text291"
       style="font-weight:500;font-size:25.3998px;font-family:'Fira Code';-inkscape-font-specification:'Fira Code Medium';fill:#131313;stroke-width:2.35098"
       inkscape:label="text">
      <path
         d="M 58.289539,31.591991 V 13.459908 h 2.108382 V 29.70685 h 8.049057 v 1.885141 z"
         style="font-weight:normal;font-family:'Open Sans';-inkscape-font-specification:'Open Sans'"
         id="path4321" />
      <path
         d="m 69.091895,17.99913 h 2.207599 l 3.001344,7.887828 q 0.384469,1.054191 0.682123,1.971957 0.310056,0.905364 0.471286,1.71151 h 0.08682 q 0.173632,-0.620112 0.49609,-1.624694 0.322459,-1.016984 0.694526,-2.071175 l 2.840114,-7.875426 h 2.220002 l -5.915871,15.589623 q -0.706928,1.885141 -1.798326,3.001343 -1.078995,1.116203 -2.976539,1.116203 -0.582905,0 -1.029386,-0.07441 -0.446481,-0.06201 -0.768939,-0.148827 v -1.649499 q 0.272849,0.06201 0.657319,0.111621 0.396872,0.04961 0.818548,0.04961 1.141007,0 1.847935,-0.657319 0.71933,-0.644917 1.165811,-1.810728 l 0.744134,-1.909946 z"
         style="font-weight:normal;font-family:'Open Sans';-inkscape-font-specification:'Open Sans'"
         id="path4323" />
      <path
         d="m 88.799063,31.840036 q -2.579667,0 -4.092741,-1.761119 -1.500672,-1.761118 -1.500672,-5.233747 0,-3.509836 1.537878,-5.295759 1.537879,-1.798326 4.092741,-1.798326 1.612292,0 2.629277,0.620112 1.016984,0.60771 1.624694,1.513074 h 0.148827 q -0.04961,-0.384469 -0.09922,-1.05419 -0.04961,-0.669722 -0.04961,-1.091398 v -5.444586 h 2.058773 v 19.297894 h -1.661901 l -0.310057,-1.93475 h -0.08682 q -0.582906,0.917766 -1.612292,1.550281 -1.029387,0.632514 -2.678885,0.632514 z m 0.322458,-1.71151 q 2.182795,0 3.088159,-1.240224 0.905364,-1.240225 0.905364,-3.683467 v -0.372068 q 0,-2.592069 -0.868157,-3.98112 -0.855755,-1.389052 -3.125366,-1.389052 -1.897544,0 -2.840114,1.463465 -0.942571,1.451063 -0.942571,3.968719 0,2.505253 0.930169,3.8695 0.94257,1.364247 2.852516,1.364247 z"
         style="font-weight:normal;font-family:'Open Sans';-inkscape-font-specification:'Open Sans'"
         id="path4325" />
      <path
         d="m 100.55639,12.914209 q 0.5085,0 0.86816,0.334861 0.37207,0.322458 0.37207,1.016984 0,0.682124 -0.37207,1.016984 -0.35966,0.334861 -0.86816,0.334861 -0.53329,0 -0.892958,-0.334861 -0.347263,-0.33486 -0.347263,-1.016984 0,-0.694526 0.347263,-1.016984 0.359668,-0.334861 0.892958,-0.334861 z m 1.00459,5.084921 V 31.591991 H 99.502203 V 17.99913 Z"
         style="font-weight:normal;font-family:'Open Sans';-inkscape-font-specification:'Open Sans'"
         id="path4327" />
      <path
         d="m 110.99908,17.77589 q 2.43084,0 3.60906,1.091397 1.17821,1.091398 1.17821,3.485031 v 9.239673 h -1.50067 l -0.39687,-2.009163 h -0.0992 q -0.85576,1.128604 -1.86034,1.699107 -0.99218,0.558101 -2.7533,0.558101 -1.86033,0 -3.06335,-0.979777 -1.20302,-0.979777 -1.20302,-3.001344 0,-2.033968 1.61229,-3.125365 1.6123,-1.091398 4.91129,-1.190616 l 2.34403,-0.09922 v -0.830951 q 0,-1.761118 -0.75654,-2.468046 -0.75654,-0.706928 -2.13319,-0.706928 -1.06659,0 -2.03396,0.310056 -0.96738,0.310056 -1.83554,0.731732 l -0.63251,-1.562683 q 0.91777,-0.471285 2.10838,-0.806146 1.19062,-0.33486 2.50525,-0.33486 z m 2.7533,7.118889 -2.07117,0.08682 q -2.54246,0.09922 -3.58425,0.830951 -1.04179,0.731732 -1.04179,2.071175 0,1.165811 0.70693,1.723912 0.70693,0.558101 1.87274,0.558101 1.81073,0 2.96413,-1.004582 1.15341,-1.004582 1.15341,-3.013745 z"
         style="font-weight:normal;font-family:'Open Sans';-inkscape-font-specification:'Open Sans'"
         id="path4329" />
      <path
         d="m 131.67363,13.459908 q 3.50983,0 5.12213,1.376649 1.62469,1.364247 1.62469,3.91911 0,1.537879 -0.69453,2.840114 -0.68212,1.302236 -2.25721,2.083578 -1.57508,0.781341 -4.21676,0.781341 h -2.2076 v 7.131291 h -2.10838 V 13.459908 Z m -0.19844,1.798326 h -2.43084 v 7.391738 h 1.97196 q 2.60447,0 3.90671,-0.855755 1.31463,-0.868157 1.31463,-2.951734 0,-1.810728 -1.1534,-2.691288 -1.15341,-0.892961 -3.60906,-0.892961 z"
         style="font-weight:normal;font-family:'Open Sans';-inkscape-font-specification:'Open Sans'"
         id="path4331" />
      <path
         d="m 148.0818,17.751085 q 0.88056,0 1.64949,0.161229 l -0.26044,1.909946 q -0.74414,-0.186034 -1.51308,-0.186034 -1.09139,0 -1.99676,0.582906 -0.90536,0.570503 -1.45106,1.624694 -0.5333,1.041789 -0.5333,2.455645 v 7.29252 h -2.07117 V 17.99913 h 1.71151 l 0.22324,2.505254 h 0.0868 q 0.62012,-1.141007 1.6619,-1.947153 1.04179,-0.806146 2.49286,-0.806146 z"
         style="font-weight:normal;font-family:'Open Sans';-inkscape-font-specification:'Open Sans'"
         id="path4333" />
      <path
         d="m 164.00628,24.770756 q 0,3.348607 -1.6867,5.208943 -1.6743,1.860337 -4.60123,1.860337 -1.81073,0 -3.21219,-0.83095 -1.40145,-0.843353 -2.19519,-2.418438 -0.78135,-1.587488 -0.78135,-3.819892 0,-3.348606 1.67431,-5.184138 1.6867,-1.835533 4.60123,-1.835533 1.86034,0 3.24939,0.830951 1.40145,0.83095 2.17039,2.406035 0.78134,1.562683 0.78134,3.782685 z m -10.34347,0 q 0,2.468047 0.97978,3.91911 0.99218,1.43866 3.12536,1.43866 2.12079,0 3.11297,-1.451062 0.99218,-1.451063 0.99218,-3.906708 0,-2.443242 -0.99218,-3.857098 -0.97978,-1.426258 -3.12537,-1.426258 -2.12078,0 -3.11296,1.401453 -0.97978,1.401454 -0.97978,3.881903 z"
         style="font-weight:normal;font-family:'Open Sans';-inkscape-font-specification:'Open Sans'"
         id="path4335" />
      <path
         d="m 167.37969,14.266054 q 0,-0.694526 0.34726,-1.016984 0.35967,-0.334861 0.89297,-0.334861 0.50849,0 0.86815,0.334861 0.37207,0.322458 0.37207,1.016984 0,0.682124 -0.37207,1.016984 -0.35966,0.334861 -0.86815,0.334861 -0.5333,0 -0.89297,-0.334861 -0.34726,-0.33486 -0.34726,-1.016984 z m -1.45106,23.427842 q -0.63252,0 -1.1038,-0.09922 -0.47129,-0.08682 -0.81855,-0.210838 v -1.674303 q 0.38447,0.124022 0.78134,0.186034 0.39687,0.07441 0.89296,0.07441 0.84336,0 1.36425,-0.471285 0.5209,-0.471285 0.5209,-1.71151 V 17.99913 h 2.05877 v 15.73845 q 0,1.872739 -0.90537,2.914528 -0.89296,1.041788 -2.7905,1.041788 z"
         style="font-weight:normal;font-family:'Open Sans';-inkscape-font-specification:'Open Sans'"
         id="path4337" />
      <path
         d="m 179.21144,17.751085 q 1.73631,0 2.97654,0.768939 1.24022,0.76894 1.89754,2.157991 0.65732,1.376649 0.65732,3.224584 v 1.277431 h -9.3885 q 0.0372,2.393634 1.19061,3.646261 1.15341,1.252626 3.24939,1.252626 1.28984,0 2.28202,-0.235642 0.99218,-0.235643 2.05877,-0.694526 v 1.810728 q -1.02939,0.458883 -2.04637,0.669721 -1.00458,0.210838 -2.38123,0.210838 -2.93933,0 -4.71286,-1.785923 -1.77352,-1.798326 -1.77352,-5.159334 0,-2.195198 0.73174,-3.795088 0.74413,-1.612291 2.08357,-2.480449 1.35185,-0.868157 3.17498,-0.868157 z m -0.0248,1.686706 q -1.6495,0 -2.62927,1.078995 -0.97978,1.078995 -1.16581,3.013746 h 7.1933 q -0.0124,-1.82313 -0.84335,-2.951735 -0.81855,-1.141006 -2.55487,-1.141006 z"
         style="font-weight:normal;font-family:'Open Sans';-inkscape-font-specification:'Open Sans'"
         id="path4339" />
      <path
         d="m 193.68486,31.840036 q -1.83554,0 -3.23699,-0.756537 -1.40145,-0.756537 -2.18279,-2.306817 -0.78135,-1.550281 -0.78135,-3.906708 0,-2.468047 0.81855,-4.03073 0.83095,-1.575085 2.28202,-2.331622 1.45106,-0.756537 3.29899,-0.756537 1.01699,0 1.95956,0.210838 0.95497,0.198436 1.56268,0.508492 l -0.62011,1.723913 q -0.62011,-0.248045 -1.43866,-0.446481 -0.80615,-0.198436 -1.51308,-0.198436 -2.12078,0 -3.17497,1.364247 -1.04179,1.351845 -1.04179,3.931512 0,2.468047 1.01698,3.844696 1.01699,1.364247 3.03855,1.364247 1.079,0 1.94716,-0.22324 0.86815,-0.235643 1.57508,-0.545699 v 1.835532 q -0.68212,0.347263 -1.52547,0.533297 -0.83095,0.186033 -1.98436,0.186033 z"
         style="font-weight:normal;font-family:'Open Sans';-inkscape-font-specification:'Open Sans'"
         id="path4341" />
      <path
         d="m 204.79726,30.153331 q 0.50849,0 1.04179,-0.08682 0.5333,-0.08682 0.86816,-0.210838 v 1.59989 q -0.35967,0.161229 -1.00458,0.272849 -0.63252,0.11162 -1.24023,0.11162 -1.07899,0 -1.95955,-0.372067 -0.88056,-0.38447 -1.41386,-1.289834 -0.52089,-0.905364 -0.52089,-2.505253 v -8.06146 h -1.93476 V 18.60684 l 1.94716,-0.806146 0.81855,-2.951734 h 1.24022 v 3.15017 h 3.98112 v 1.612292 h -3.98112 v 7.999449 q 0,1.277431 0.58291,1.909945 0.5953,0.632515 1.57508,0.632515 z"
         style="font-weight:normal;font-family:'Open Sans';-inkscape-font-specification:'Open Sans'"
         id="path4343" />
    </g>
    <circle
       style="fill:#c7c7c7;fill-opacity:1;stroke-width:2.351;stroke-dasharray:0.7053, 0.7053, 0.470199, 0.7053"
       id="path236"
       cx="25"
       cy="25"
       inkscape:label="background"
       r="24" />
    <path
       d="m 37.479888,24.096295 -4.741334,13.80718 c -0.356034,1.042051 -0.811931,1.96253 -1.367692,2.761436 -0.555761,0.798906 -1.267829,1.437162 -2.136205,1.914769 -0.868376,0.486291 -1.945162,0.78588 -3.230359,0.898769 l -0.377744,-2.188308 c 0.929163,-0.147624 1.667282,-0.364718 2.214359,-0.651282 0.555761,-0.27788 1.31559,-1.107179 1.31559,-1.107179 0,0 2.783494,-4.255807 1.93329,-5.516766 l -6.026191,-9.951692 c 0,0 0.642505,-0.362092 1.111836,-0.347267 1.100257,0.03475 1.326809,0.380337 1.326809,0.380337 l 4.589299,7.489744 2.392444,-7.489744 z"
       id="path678"
       style="font-weight:500;font-size:25.4px;font-family:'Fira Code';-inkscape-font-specification:'Fira Code Medium';fill:#161a1a;fill-opacity:1;stroke-width:2.351;stroke-dasharray:0.7053, 0.7053, 0.470199, 0.7053"
       sodipodi:nodetypes="ccscccccscscccc"
       inkscape:label="y" />
    <path
       d="m 18.477055,10.067333 c 0.352598,0.170697 0,15.209607 0,15.526564 0,0.316957 0.191043,1.085469 0.573128,1.354666 0.390769,0.260513 0.894427,0.39077 1.510974,0.39077 0.390769,0 0.764171,-0.03908 1.120205,-0.117231 0.364718,-0.08684 3.049767,-3.024063 3.388434,-3.163003 l 1.219332,1.692185 c -0.408137,0.20841 -3.308611,3.389555 -3.907791,3.545863 -0.590495,0.156308 -1.68124,0.399827 -2.445411,0.399827 -1.380718,0 -2.457504,-0.390769 -3.230359,-1.172308 -0.764171,-0.781539 -1.146256,-1.845299 -1.146256,-3.191282 v -13.11682 h -1.525883 v -2.149231 c 0,0 4.091029,-0.1706974 4.443627,0 z"
       id="path676"
       style="font-weight:500;font-size:25.4px;font-family:'Fira Code';-inkscape-font-specification:'Fira Code Medium';fill:#161a1a;fill-opacity:1;stroke-width:2.351;stroke-dasharray:0.7053, 0.7053, 0.470199, 0.7053"
       sodipodi:nodetypes="zzcsccccscscccz"
       inkscape:label="l" />
    <rect
       style="fill:#161a1a;fill-opacity:1;stroke-width:2.32448;stroke-dasharray:0.697343, 0.697343, 0.464894, 0.697343"
       id="rect842"
       width="16.175411"
       height="1.8530568"
       x="10.323937"
       y="30.551838"
       rx="1.1340544"
       ry="1.0403283"
       inkscape:label="line" />
  </g>
  <metadata
     id="metadata146">
    <rdf:RDF>
      <cc:Work
         rdf:about="">
        <cc:license
           rdf:resource="http://creativecommons.org/publicdomain/zero/1.0/" />
        <dc:title>Lydia Project Icon</dc:title>
        <dc:creator>
          <cc:Agent>
            <dc:title>xtex</dc:title>
          </cc:Agent>
        </dc:creator>
        <dc:subject>
          <rdf:Bag>
            <rdf:li>lydia</rdf:li>
          </rdf:Bag>
        </dc:subject>
        <dc:date>2023/5/20</dc:date>
      </cc:Work>
      <cc:License
         rdf:about="http://creativecommons.org/publicdomain/zero/1.0/">
        <cc:permits
           rdf:resource="http://creativecommons.org/ns#Reproduction" />
        <cc:permits
           rdf:resource="http://creativecommons.org/ns#Distribution" />
        <cc:permits
           rdf:resource="http://creativecommons.org/ns#DerivativeWorks" />
      </cc:License>
    </rdf:RDF>
  </metadata>
</svg>
