<?xml version="1.0" encoding="UTF-8" standalone="no"?>
<!-- Created with Inkscape (http://www.inkscape.org/) -->

<svg
   xmlns:dc="http://purl.org/dc/elements/1.1/"
   xmlns:cc="http://creativecommons.org/ns#"
   xmlns:rdf="http://www.w3.org/1999/02/22-rdf-syntax-ns#"
   xmlns:svg="http://www.w3.org/2000/svg"
   xmlns="http://www.w3.org/2000/svg"
   xmlns:xlink="http://www.w3.org/1999/xlink"
   xmlns:sodipodi="http://sodipodi.sourceforge.net/DTD/sodipodi-0.dtd"
   xmlns:inkscape="http://www.inkscape.org/namespaces/inkscape"
   width="210mm"
   height="297mm"
   viewBox="0 0 210 297"
   version="1.1"
   id="svg8"
   inkscape:version="0.92.1 r15371"
   sodipodi:docname="drawing.svg">
  <defs
     id="defs2" />
  <sodipodi:namedview
     id="base"
     pagecolor="#ffffff"
     bordercolor="#666666"
     borderopacity="1.0"
     inkscape:pageopacity="0.0"
     inkscape:pageshadow="2"
     inkscape:zoom="0.35"
     inkscape:cx="405.71429"
     inkscape:cy="674.28571"
     inkscape:document-units="mm"
     inkscape:current-layer="layer1"
     showgrid="false"
     inkscape:window-width="1920"
     inkscape:window-height="1043"
     inkscape:window-x="3120"
     inkscape:window-y="576"
     inkscape:window-maximized="1" />
  <metadata
     id="metadata5">
    <rdf:RDF>
      <cc:Work
         rdf:about="">
        <dc:format>image/svg+xml</dc:format>
        <dc:type
           rdf:resource="http://purl.org/dc/dcmitype/StillImage" />
        <dc:title></dc:title>
      </cc:Work>
    </rdf:RDF>
  </metadata>
  <g
     inkscape:label="Layer 1"
     inkscape:groupmode="layer"
     id="layer1">
    <path
       style="fill:#000000;stroke-width:0.35277778"
       d="m 84.994481,214.31563 c -5.949945,-1.05364 -21.213966,-2.23295 -13.352206,-10.9714 3.695507,-12.89237 4.88332,-26.42383 5.638505,-39.76417 -19.025785,1.84272 -39.922515,-1.87712 -54.534241,-14.94703 -10.376185,-8.42312 -15.0451298,-23.62666 -8.969777,-35.94804 3.623461,-8.80684 10.448942,-15.705428 17.578613,-21.776377 3.345481,-10.464225 5.068239,-21.801097 8.460262,-31.982302 4.466092,6.611636 8.174656,13.714598 12.269483,20.565238 16.66839,-1.648195 33.562264,-3.625288 50.27083,-1.585865 8.27464,4.824707 13.98201,0.431648 16.53857,-7.829803 2.33085,-3.357656 6.60157,-15.536359 7.20814,-5.420148 1.69117,8.81785 3.42432,17.627565 5.14434,26.439813 8.65544,8.252934 16.47454,18.690314 16.23665,31.261414 0.15052,19.00213 -16.39479,33.26368 -33.43058,38.20593 -6.98098,2.18615 -14.27459,3.10793 -21.550892,3.59694 6.822478,11.6862 16.162262,22.46563 18.961012,36.01002 11.7332,-1.60806 23.47262,-9.37933 27.57163,-21.00115 4.57614,-10.28331 2.7418,-21.81526 3.56869,-32.62977 3.59259,-8.36013 9.75557,-18.09339 20.08437,-17.61026 11.31681,0.60592 21.72389,8.55681 26.96142,18.37719 4.27664,7.64106 1.15388,18.96169 -8.02363,21.03954 -4.43086,1.17288 -13.59254,3.94132 -15.73306,0.24894 6.2893,-4.1808 17.38926,-5.47314 18.52184,-14.45304 -1.09128,-7.7233 -8.60287,-12.46372 -14.47271,-16.64506 -7.5555,-5.27554 -17.4013,1.51599 -20.25435,8.90236 -2.71908,12.67921 2.14599,26.86221 -5.10981,38.59235 -6.58969,10.90246 -18.14975,19.19652 -30.72988,21.4619 -6.9547,1.43192 -11.31322,10.44678 -20.201235,8.39584 -2.892543,0.0701 -5.786826,-0.14442 -8.651984,-0.53306 z M 50.548173,136.37518 c 9.126923,-2.37248 15.298303,-10.49331 20.748169,-17.70152 -5.627883,-8.11307 -11.761537,-16.94128 -21.327889,-20.587224 10.698125,7.229604 11.612395,24.495364 3.278572,33.827614 -6.151929,7.34316 -17.514316,1.94845 -19.376662,-6.47971 -3.402429,-9.5564 -1.364495,-22.65477 8.336981,-27.712969 -10.159912,2.352789 -15.430016,12.183909 -21.347193,19.873609 5.109409,10.56059 15.906937,19.04843 27.919299,18.96924 l 1.768725,-0.18904 z m 71.578187,-1.25594 c 6.9859,-3.84485 12.36892,-9.99874 16.90292,-16.44614 -5.43052,-7.84042 -11.20344,-16.34394 -20.28566,-20.21139 8.99047,7.71777 10.23142,22.34175 3.60087,31.91231 -4.0751,6.81567 -14.54106,6.61987 -18.29916,-0.39976 -6.686348,-9.84327 -5.228428,-26.2426 5.89534,-32.266383 -10.180009,2.368153 -15.346942,12.210943 -21.318868,19.857373 5.056277,10.75606 16.025078,18.8559 28.021648,19.13088 1.93444,-0.0364 3.81243,-0.61346 5.48291,-1.57689 z"
       id="path168"
       inkscape:connector-curvature="0" />
  </g>
</svg>
