<svg viewBox="0 0 256 256" xmlns="http://www.w3.org/2000/svg">
	<style type="text/css">
		circle {
			fill: none;
			stroke: #000;
			stroke-width: 15;
		}
		path {
			fill: none;
			stroke: #000;
			stroke-width: 25;
		}
		.orange {
			stroke:#ff6600;
		}
		.red {
			stroke:#d40000;
		}
	</style>
	<g transform="translate(-14.547069)">
		<g transform="matrix(1.2132701,0,0,1.2132701,6.67299,6.6729858)">
			<path class="orange" d="m58 168v-98a50 50 0 0 1 50-50h20"/>
			<path class="red" d="m58 168v-30a50 50 0 0 1 50-50h20"/>
			<circle class="orange" cx="142" cy="20" r="18"/>
			<circle class="red" cx="142" cy="88" r="18"/>
			<circle class="red" cx="58" cy="180" r="18"/>
		</g>
		<path style="fill:#ff6600;fill-opacity:1;stroke-width:0;stroke-dasharray:none" d="m 139.18194,161.16602 h 87.55081 c 6.76592,0 12.25712,5.50741 12.25712,12.29331 v 28.09894 c 0,2.6132 -0.81249,5.03674 -2.19928,7.02474 1.38679,1.988 2.19928,4.41153 2.19928,7.02474 v 28.09894 A 12.257114,12.293294 0 0 1 226.73275,256 h -87.55081 a 12.257114,12.293294 0 0 1 -12.25711,-12.29331 v -28.09894 c 0,-2.51486 0.76344,-4.9665 2.19927,-7.02474 a 12.180069,12.216022 0 0 1 -2.19927,-7.02474 v -28.09894 c 0,-6.7859 5.49119,-12.29331 12.25711,-12.29331 z m -1.75103,12.29331 v 28.09894 c 0,0.96941 0.78447,1.75619 1.75103,1.75619 h 87.55081 a 1.7510163,1.7561848 0 0 0 1.75102,-1.75619 v -28.09894 a 1.7510163,1.7561848 0 0 0 -1.75102,-1.75619 h -87.55081 a 1.7510163,1.7561848 0 0 0 -1.75103,1.75619 z m 1.75103,40.39223 a 1.7510163,1.7561848 0 0 0 -1.75103,1.75619 v 28.09894 c 0,0.96942 0.78447,1.75619 1.75103,1.75619 h 87.55081 a 1.7510163,1.7561848 0 0 0 1.75102,-1.75619 v -28.09894 a 1.7510163,1.7561848 0 0 0 -1.75102,-1.75619 z m 36.77134,-26.34276 a 5.2530486,5.2685544 0 0 1 5.25304,-5.26857 h 31.51831 a 5.253054,5.26856 0 0 1 0,10.53712 h -31.51831 a 5.2530486,5.2685544 0 0 1 -5.25304,-5.26855 z m 5.25304,36.87987 h 31.51831 a 5.2530492,5.268555 0 0 1 0,10.53711 h -31.51831 a 5.2530492,5.268555 0 0 1 0,-10.53711 z m -33.2693,-36.87987 a 5.2530486,5.2685544 0 0 1 5.25304,-5.26857 h 3.50204 a 5.253054,5.26856 0 0 1 0,10.53712 h -3.50204 a 5.2530486,5.2685544 0 0 1 -5.25304,-5.26855 z m 5.25304,36.87987 h 3.50204 a 5.2530492,5.268555 0 0 1 0,10.53711 h -3.50204 a 5.2530492,5.268555 0 0 1 0,-10.53711 z"/>
	</g>
</svg>
