<svg viewBox="0 0 256 256" xmlns="http://www.w3.org/2000/svg">
	<style type="text/css">
		circle {
			fill: none;
			stroke: #000;
			stroke-width: 15;
		}
		path {
			fill: none;
			stroke: #000;
			stroke-width: 25;
		}
		.orange {
			stroke:#ff6600;
		}
		.red {
			stroke:#d40000;
		}
	</style>
	<g transform="translate(28,28)">
		<path class="orange" d="m58 168v-98a50 50 0 0 1 50-50h20"/>
		<path class="red" d="m58 168v-30a50 50 0 0 1 50-50h20"/>
		<circle class="orange" cx="142" cy="20" r="18"/>
		<circle class="red" cx="142" cy="88" r="18"/>
		<circle class="red" cx="58" cy="180" r="18"/>
	</g>
	<path d="m202.45 154.26c4.3653-3.1716 8.8281-5.8699 12.943-7.2007 4.0474-1.3068 9.1206-1.667 12.898 2.1191 3.7578 3.7437 3.5389 8.7963 2.2957 12.905-1.2573 4.1675-3.8921 8.665-7.0142 13.066-6.3008 8.8776-15.56 18.622-23.534 26.489-6.8447 6.7599-13.291 11.464-18.952 14.338a23.341 23.341 0 0 1-6.5762 20.056c-2.6842 2.6842-6.6398 4.3088-10.33 5.3684-3.8285 1.1019-8.0674 1.7871-11.933 2.225a131.86 131.86 0 0 1-14.239 0.81233h-0.35318l0.0438-4.6761h-6e-3l-0.0415 4.6761a4.6756 4.6756 0 0 1-4.6196-4.6281l4.6338-0.0495-4.6267 0.0438v-0.35319a132.48 132.48 0 0 1 0.81232-14.239c0.42382-4.0334 1.1655-8.0236 2.2321-11.933 1.0596-3.6872 2.6771-7.6429 5.3613-10.33a23.353 23.353 0 0 1 20.118-6.5692c2.9032-5.5661 7.6372-11.889 14.426-18.59 7.9233-7.8244 17.661-17.144 26.464-23.547zm-59.312 72.03c-0.35319 2.8961-0.56509 5.7922-0.63574 8.696 2.9032-0.14132 5.8134-0.35317 8.7031-0.63572a65.527 65.527 0 0 0 10.399-1.9284c3.2775-0.93947 5.333-2.0273 6.3008-2.995a14.027 14.027 0 1 0-19.838-19.837c-0.96772 0.96772-2.0484 3.0232-2.995 6.2937a65.552 65.552 0 0 0-1.9284 10.411zm64.811-64.462c-7.6308 5.552-16.24 13.647-23.827 21.097l10.71 10.71c7.544-7.5122 15.648-16.19 21.115-23.896 2.9314-4.1252 4.8598-7.6492 5.6862-10.361 0.83351-2.7689 0.21192-3.4329 0.0565-3.5883h-6e-3v-6e-3c-0.0706-0.0706-0.70637-0.70637-3.4188 0.14132-2.6912 0.8759-6.2019 2.882-10.318 5.8699zm-30.124 45.298-6e-3 6e-3a61.463 61.463 0 0 0 10.162-7.1194l-10.336-10.336a60.471 60.471 0 0 0-7.2381 10.018c3.002 1.886 5.5449 4.4289 7.4189 7.431z" style="fill:#ff6600;fill-opacity:1;stroke-width:0;stroke-dasharray:none"/>
</svg>
