<?xml version="1.0" encoding="UTF-8" standalone="no"?>
<svg
   version="1.1"
   id="svg15513"
   viewBox="0 0 386.696 262.306"
   sodipodi:docname="forgejo-sticker-with-icons.svg"
   xml:space="preserve"
   inkscape:version="1.3.2 (091e20ef0f, 2023-11-25)"
   inkscape:export-filename="forgejo-sticker-with-icons.png"
   inkscape:export-xdpi="96"
   inkscape:export-ydpi="96"
   xmlns:inkscape="http://www.inkscape.org/namespaces/inkscape"
   xmlns:sodipodi="http://sodipodi.sourceforge.net/DTD/sodipodi-0.dtd"
   xmlns="http://www.w3.org/2000/svg"
   xmlns:svg="http://www.w3.org/2000/svg"><defs
     id="defs12" /><sodipodi:namedview
     id="namedview12"
     pagecolor="#ffffff"
     bordercolor="#000000"
     borderopacity="0.25"
     inkscape:showpageshadow="2"
     inkscape:pageopacity="0.0"
     inkscape:pagecheckerboard="0"
     inkscape:deskcolor="#d1d1d1"
     showguides="true"
     inkscape:zoom="2.0955591"
     inkscape:cx="142.20549"
     inkscape:cy="100.92772"
     inkscape:window-width="1920"
     inkscape:window-height="1056"
     inkscape:window-x="1050"
     inkscape:window-y="600"
     inkscape:window-maximized="1"
     inkscape:current-layer="svg15513" /><style
     type="text/css"
     id="style15499">
    circle,path{fill:none;stroke:#000;stroke-width:12}path{stroke-width:20}.orange{stroke:#d45500}.red{stroke:#a00}
  </style><g
     transform="matrix(1.15 0 0 1.15 -34.85 11.15)"
     id="g15511"><path
       d="M60 170V70a50 50 0 0 1 50-50h20"
       class="orange"
       id="path15501"
       style="stroke-width:23.4783;stroke-dasharray:none;stroke:#f50;stroke-opacity:1" /><path
       d="M60 170v-35a50 50 0 0 1 50-50h20"
       class="red"
       id="path15503"
       style="stroke-width:23.4783;stroke-dasharray:none;stroke:#c00;stroke-opacity:1" /><circle
       cx="140"
       cy="20"
       class="orange"
       id="circle15505"
       style="fill:none;stroke-width:13.913;stroke-dasharray:none;stroke:#f50;stroke-opacity:1"
       r="16.5217" /><circle
       cx="140"
       cy="85"
       class="red"
       id="circle15507"
       style="fill:none;stroke-width:13.913;stroke-dasharray:none;stroke:#c00;stroke-opacity:1"
       r="16.5217" /><circle
       cx="60"
       cy="180"
       class="red"
       id="circle15509"
       style="fill:none;stroke-width:13.913;stroke-dasharray:none;stroke:#c00;stroke-opacity:1"
       r="16.5217" /></g><g
     aria-label="orgejo"
     id="text15573"
     style="font-size:226.667px;line-height:1.25;font-family:Montserrat;-inkscape-font-specification:'Montserrat, @wght=451';font-variation-settings:'wght'451;opacity:1;fill:#f50;fill-opacity:1;fill-rule:nonzero;stroke:none;stroke-width:1;stroke-dasharray:none;stroke-opacity:1"
     transform="matrix(0.447076, 0, 0, 0.447076, 16.715746, 105.571014)"><path
       d="M202.3268 241.9833q-17.68 0-31.7334-7.7066-13.8267-7.9334-21.9867-21.76-7.9333-13.8268-7.9333-31.5068 0-17.9067 7.9333-31.5067 8.16-13.8267 21.9867-21.5334 13.8267-7.9333 31.7334-7.9333 17.68 0 31.5067 7.9333 14.0533 7.7067 21.9867 21.5334 7.9333 13.6 7.9333 31.5067 0 17.68-7.9333 31.5067-7.9334 13.8267-21.9867 21.76-13.8267 7.7067-31.5067 7.7067zm0-16.5467q12.24 0 21.76-5.44 9.52-5.6666 14.96-15.64 5.6667-10.2 5.6667-23.3467 0-13.3733-5.6667-23.3467-5.44-9.9733-14.96-15.4133-9.52-5.44-21.76-5.44-12.24 0-21.76 5.44-9.52 5.44-15.1867 15.4133-5.44 9.9734-5.44 23.3467 0 13.1467 5.44 23.3467 5.6666 9.9734 15.1866 15.64 9.52 5.44 21.76 5.44z"
       id="path1095"
       style="fill:#f50;fill-opacity:1;fill-rule:nonzero;stroke:none;stroke-width:1;stroke-dasharray:none;stroke-opacity:1" /><path
       d="M279.8505 240.85V121.1698h18.1333v32.64l-1.8133-7.0266q4.9867-12.92 16.7733-19.72 11.7867-7.0267 29.24-7.0267v18.5867q-1.1332-.2267-2.2666-.2267-1.1333-.2266-2.2666-.2266-17.9067 0-28.3334 11.1066-10.4267 10.88-10.4267 31.28V240.85z"
       id="path1097"
       style="fill:#f50;fill-opacity:1;fill-rule:nonzero;stroke:none;stroke-width:1;stroke-dasharray:none;stroke-opacity:1" /><path
       d="M405.1475 285.9567c-10.88 0-21.4578-1.5866-31.7334-4.76-10.1245-3.0222-18.4356-7.4044-24.9334-13.1467l9.52-14.7333c5.5911 4.9867 12.4667 8.9156 20.6267 11.7867 8.3111 2.871 16.9245 4.3066 25.84 4.3066 14.6579 0 25.4623-3.4755 32.4134-10.4266 6.9512-6.8 9.3937-17.3399 10.4267-31.5067l2-27.4268 2.2667-22.2133-1.5867-22.2134 8.72-9.7467c11.1802 15.4761 7.4134 50.817 7.4134 79.5602 0 20.8533-5.1378 36.1156-15.4134 45.7867-10.2755 9.8222-25.4622 14.7333-45.56 14.7333zm1.28-49.8667c-11.4845 0-21.8356-2.4178-31.0534-7.2533-9.0667-4.9867-16.2445-11.8623-21.5334-20.6267-5.2889-8.7645-7.9333-18.889-7.9333-30.3734 0-11.4845 2.6444-21.5334 7.9333-30.1467 5.289-8.7645 12.4667-15.5645 21.5334-20.4 9.2178-4.8356 19.5689-7.2534 31.0534-7.2534 10.4266 0 23.7955 2.1911 32.1067 6.5733 8.4622 4.2312 15.1867 10.6534 20.1733 19.2667 5.1378 8.6134 5.7067 19.2667 5.7067 31.96 0 12.8445-4.5689 23.5734-9.7067 32.1868-4.9866 8.6133-11.7111 15.1111-20.1733 19.4934-8.3112 4.3822-17.68 6.5733-28.1067 6.5733zm-.1867-16.7734c8.4622 0 15.9422-1.7377 22.44-5.2133 6.4978-3.4756 11.56-8.3111 15.1867-14.5067 3.7778-6.3467 5.6667-13.6 5.6667-21.76 0-8.16-1.8889-15.3378-5.6667-21.5334-3.6267-6.1955-8.6889-10.9556-15.1867-14.28-6.4978-3.4756-13.9778-5.2133-22.44-5.2133-8.3111 0-15.7156 1.7377-22.2134 5.2133-6.4978 3.3244-11.6355 8.0845-15.4133 14.28-3.6267 6.1956-5.44 13.3734-5.44 21.5334s1.8133 15.4133 5.44 21.76c3.7778 6.1956 8.9155 11.0311 15.4133 14.5067s13.9023 5.2133 22.2134 5.2133z"
       id="path1099"
       style="fill:#f50;fill-opacity:1;fill-rule:nonzero;stroke:none;stroke-width:1;stroke-dasharray:none;stroke-opacity:1" /><path
       d="M601.862 285.9567c-4.9866 0-9.7466-.6044-14.28-1.8133-4.5333-1.2089-8.311-3.0978-11.3333-5.6667l6.3467-14.28c4.6844 3.7778 10.7289 5.6667 18.1333 5.6667 6.0445 0 10.6534-1.8134 13.8267-5.44 3.3245-3.6267 4.9867-9.0667 4.9867-16.32V141.1698h19.04v106.9335c0 11.6356-3.1733 20.8534-9.52 27.6534-6.3466 6.8-15.4133 10.2-27.2 10.2z"
       id="path1103"
       style="fill:#f50;fill-opacity:1;fill-rule:nonzero;stroke:none;stroke-width:1;stroke-dasharray:none;stroke-opacity:1" /><path
       d="M717.3326 241.9833q-17.68 0-31.7333-7.7066-13.8267-7.9334-21.9867-21.76-7.9334-13.8268-7.9334-31.5068 0-17.9067 7.9333-31.5067 8.16-13.8267 21.9867-21.5334 13.8267-7.9333 31.7334-7.9333 17.68 0 31.5067 7.9333 14.0534 7.7067 21.9867 21.5334 7.9334 13.6 7.9334 31.5067 0 17.68-7.9334 31.5067-7.9333 13.8267-21.9867 21.76-13.8266 7.7067-31.5067 7.7067zm0-16.5467q12.24 0 21.76-5.44 9.52-5.6666 14.96-15.64 5.6668-10.2 5.6668-23.3467 0-13.3733-5.6667-23.3467-5.44-9.9733-14.96-15.4133-9.52-5.44-21.76-5.44-12.24 0-21.7601 5.44-9.52 5.44-15.1867 15.4133-5.44 9.9734-5.44 23.3467 0 13.1467 5.44 23.3467 5.6667 9.9734 15.1867 15.64 9.52 5.44 21.76 5.44z"
       id="path1105"
       style="fill:#f50;fill-opacity:1;fill-rule:nonzero;stroke:none;stroke-width:1;stroke-dasharray:none;stroke-opacity:1" /><path
       d="M547.1384 242.2469q-18.8133 0-33.32-7.7067-14.28-7.9334-22.44-21.76-7.9334-13.8268-7.9334-31.5068t7.7067-31.5067q7.7066-13.8267 21.08-21.5333 13.6-7.9334 30.8267-7.9334 16.32 0 29.24 7.2534 12.92 7.2533 20.6268 20.4 7.9333 12.92 8.3866 30.3734l-101.7734 19.9466-.9067-13.8266 91.5735-17.68-7.0267 9.9733q0-11.3334-5.2134-20.4-4.9866-9.0667-14.0533-14.28-9.0667-5.44-20.8534-5.44-12.0133 0-21.5333 5.44-9.2934 5.44-14.5067 15.1866-5.2134 9.7467-5.2134 22.8934 0 13.8267 5.6667 24.2534 5.8933 10.2 16.0934 15.8666 10.4266 5.44 24.0267 5.44 10.88 0 19.9467-3.6266 9.0666-3.8534 15.64-11.56l10.4267 12.24q-7.7067 9.52-19.72 14.5067-12.0134 4.9866-26.7468 4.9867z"
       id="path11315"
       style="font-size:226.667px;line-height:1.25;font-family:Montserrat;-inkscape-font-specification:'Montserrat, @wght=451';font-feature-settings:'ss01';font-variation-settings:'wght'451;fill:#f50;fill-opacity:1;stroke:none;stroke-width:20" /></g><circle
     cx="297.481"
     cy="154.258"
     r="7.711"
     class="orange"
     id="circle15505-0"
     style="font-size:226.667px;line-height:1.25;font-family:Montserrat;-inkscape-font-specification:'Montserrat, @wght=451';font-variation-settings:'wght' 451;opacity:1;fill:none;fill-opacity:1;fill-rule:nonzero;stroke:rgb(255, 85, 0);stroke-width:6.17;stroke-dasharray:none;stroke-opacity:1"
     transform="translate(-2.3647999e-8)" /><g
     id="g19"><path
       d="m 228.10752,27.40648 c -0.27049,-0.222109 -0.28244,-0.633032 -0.0217,-0.871797 l 4.71891,-4.328684 -2.70495,-2.221092 c -0.6801,-0.558446 0.22091,-0.789049 0.25541,-0.799543 2.38893,-0.923846 5.94378,-2.274837 10.66811,-4.08885 0.41681,-0.154622 0.84383,0.199899 0.76954,0.637054 -0.021,0.1264 -0.0835,0.241962 -0.1774,0.327917 l -4.7189,4.328685 2.71267,2.227438 c 0.30914,0.253839 0.35859,0.54029 -0.10969,0.763915 -6.18525,2.34829 -9.78728,3.725231 -10.82156,4.118132 -0.19151,0.07565 -0.40815,0.04009 -0.57045,-0.09318 z"
       style="display:inline;fill:#f97316;stroke:none;stroke-width:1px"
       id="path1" /><path
       d="m 264.80551,118.96498 c 0.5367,-0.12022 0.87746,-0.65771 0.75723,-1.1944 l -1.53013,-6.83072 c -0.12022,-0.5367 -0.65771,-0.87745 -1.1944,-0.75723 -0.5367,0.12023 -0.87746,0.65771 -0.75723,1.19441 l 1.53013,6.83072 c 0.12022,0.53669 0.65771,0.87745 1.1944,0.75722 z m -9.77384,-7.03363 c -0.5367,0.12023 -0.87745,0.65771 -0.75723,1.19441 l 1.53013,6.83071 c 0.12023,0.5367 0.65771,0.87746 1.19441,0.75723 0.5367,-0.12022 0.87745,-0.65771 0.75723,-1.1944 l -1.53013,-6.83072 c -0.12023,-0.5367 -0.65771,-0.87745 -1.19441,-0.75723 z m 10.54201,-4.95418 c -0.29532,0.46581 -0.91009,0.60353 -1.37591,0.30821 l -5.07185,-3.1987 c -0.46582,-0.29532 -0.60353,-0.91008 -0.3104,-1.38566 l 1.61508,-2.53433 c 0.41117,-0.648556 1.36899,-0.608966 1.72537,0.0716 0.16497,0.31557 0.14956,0.69512 -0.0413,0.99611 l -1.07526,1.69606 4.2282,2.68058 c 0.45387,0.28775 0.59377,0.91227 0.30603,1.36615 z m -7.81411,1.76066 c -0.29532,0.46582 -0.91008,0.60353 -1.3759,0.30821 l -5.07186,-3.1987 c -0.46582,-0.29531 -0.60353,-0.91008 -0.3104,-1.38566 l 1.62265,-2.54627 c 0.41118,-0.64856 1.36899,-0.60897 1.72538,0.0716 0.16497,0.31557 0.14956,0.69512 -0.0413,0.99611 l -1.07526,1.69606 4.2282,2.68058 c 0.45387,0.28775 0.59377,0.91227 0.29845,1.37809 z"
       style="display:inline;fill:#f97316;stroke:none;stroke-width:1px"
       id="path2" /><path
       d="m 202.95388,126.6551 -0.56847,-1.18683 c -2.02329,-4.19994 -3.35599,-6.9768 -2.40509,-9.32022 0.77907,-1.91996 2.88966,-2.80751 4.80406,-2.0307 1.08043,0.43842 1.91501,1.36306 2.27202,2.4274 0.99771,-0.51463 2.23876,-0.59704 3.32013,-0.15825 1.9144,0.77681 2.81069,2.88448 2.03162,4.80443 -0.9509,2.34343 -3.84266,3.40611 -8.22046,5.00866 z"
       style="display:inline;fill:#f97316;stroke:none;stroke-width:0.671"
       id="path3" /><path
       d="m 352.65819,64.776778 c 0,0 -7.30767,-2.259303 -15.19106,4.233384 -6.0497,4.981409 -9.15625,10.16136 -9.15625,10.16136 l 2.12781,-0.485852 c 2.01675,-2.063085 2.99944,-2.874083 4.73085,-3.947025 2.26632,1.346227 4.84568,1.915927 7.72302,-0.08095 -1.79776,-1.040017 -3.37979,-1.312208 -5.72529,-1.666956 3.01702,-1.093721 4.86962,-1.030788 7.19147,-0.02133 l 1.46618,-1.688289 c -1.65879,-0.777173 -2.81359,-1.104806 -4.63962,-1.150589 2.25389,-0.856123 3.77488,-1.270717 6.1058,-0.537699 l 1.65216,-1.568239 c -1.48357,-0.494691 -2.43631,-0.563922 -4.27949,-0.583137 1.92263,-1.013494 3.51062,-1.286981 5.61567,-0.880431 0,0 1.48723,-1.569307 2.37875,-1.784245 z"
       style="display:inline;fill:#f97316;stroke:none;stroke-width:1px"
       id="path4" /><path
       d="m 258.54297,60.027 c -1.69722,2.554435 -2.62001,6.008788 -2.70506,6.334005 l -2.37407,-0.642108 c -0.68295,-0.185684 -0.96105,-1.004686 -0.53643,-1.570109 l 2.55617,-3.403845 c 0.39914,-0.531498 1.0428,-0.835156 1.71452,-0.799385 z m 2.90578,9.848969 c 0.33925,0.254768 0.78613,0.272015 1.137,0.0403 1.0724,-0.697958 3.35877,-2.305919 4.72603,-4.126581 3.89795,-5.190582 3.41093,-8.898952 2.91832,-10.444992 -0.12902,-0.388706 -0.48523,-0.656213 -0.89337,-0.67089 -1.62207,-0.04202 -5.31918,0.524211 -9.21713,5.714793 -1.36726,1.820662 -2.26409,4.463273 -2.64527,5.68916 -0.1247,0.40156 0.0278,0.834404 0.35571,1.08068 z m 6.66118,-2.664501 c -1.97994,2.342127 -5.04003,4.19144 -5.32863,4.363796 l 1.27856,2.100898 c 0.36874,0.604098 1.2328,0.642816 1.65741,0.07739 l 2.55618,-3.403846 c 0.39914,-0.531497 0.51129,-1.234292 0.28965,-1.869411 z m -8.25712,3.800541 c 0.33345,0.945467 0.17172,1.995704 -0.43024,2.798463 -0.6539,0.870752 -2.93983,1.771606 -4.43214,2.286871 -0.66482,0.225863 -1.35464,-0.292166 -1.32309,-0.993597 0.0788,-1.576799 0.29664,-4.02184 0.96045,-4.894 0.6021,-0.801769 1.5656,-1.249903 2.56753,-1.193422 1.18932,0.05306 2.27494,0.86832 2.65749,1.995685 z m 2.83535,-8.897893 c -0.15489,-1.089041 0.60941,-2.106802 1.69845,-2.261692 1.08904,-0.15489 2.1068,0.609415 2.26169,1.698456 0.15489,1.08904 -0.60941,2.106801 -1.69845,2.261691 -1.08904,0.15489 -2.1068,-0.609415 -2.26169,-1.698455 z"
       style="display:inline;fill:#f97316;stroke:none;stroke-width:1px"
       id="path5" /><path
       fill-rule="evenodd"
       d="m 310.6696,33.792684 c -0.68574,-1.338568 -2.30897,-1.862038 -3.64842,-1.175833 -1.8535,0.943926 -1.99043,3.538783 -0.24631,4.671098 0.3997,0.260402 0.86181,0.410173 1.33879,0.433231 l 0.18557,0.362232 c 0.29696,0.638874 0.32871,1.323728 0.0935,2.053236 -0.23526,0.729507 -0.66113,1.266782 -1.27539,1.611801 -0.98894,0.536974 -1.68641,1.107767 -2.13378,1.778528 l -2.94088,-5.740534 c 1.12873,-1.744536 -0.0536,-4.059028 -2.12938,-4.165269 -0.47743,-0.02395 -0.95095,0.07819 -1.37502,0.296564 -1.33946,0.686205 -1.85047,2.303044 -1.16472,3.641612 0.44307,0.853906 1.30631,1.409416 2.26877,1.45679 l 4.05295,7.911258 c -0.495,0.786166 -0.59408,1.812199 -0.14314,2.692414 0.68575,1.338568 2.30897,1.862039 3.64754,1.17629 1.33857,-0.685749 1.86204,-2.308971 1.17629,-3.647539 -0.32738,-0.639024 -0.85901,-1.082395 -1.47934,-1.312908 0.0717,-0.127716 0.32499,-0.791211 0.42156,-0.931694 0.23289,-0.286722 0.56976,-0.550311 1.02811,-0.785125 1.23547,-0.709338 2.07415,-1.74798 2.54467,-3.206996 0.47052,-1.459015 0.22383,-3.129259 -0.35897,-4.413825 l -0.024,0.01231 c 0.51353,-0.811394 0.61307,-1.836537 0.16167,-2.717642 z m -11.62554,1.083893 c 0.79566,-0.40762 1.78728,-0.07743 2.18852,0.705774 0.40169,0.784094 0.0783,1.786831 -0.70577,2.188523 -0.7841,0.401692 -1.78683,0.07832 -2.18853,-0.705774 -0.40123,-0.783204 -0.0783,-1.786831 0.70578,-2.188523 z m 7.66771,14.967219 c -0.79566,0.40762 -1.78729,0.07743 -2.18898,-0.706664 -0.40123,-0.783204 -0.0783,-1.786831 0.70578,-2.188523 0.78409,-0.401692 1.78728,-0.07743 2.18852,0.705774 0.40169,0.784094 0.0788,1.787721 -0.70532,2.189413 z m 2.29279,-13.355422 c -0.79567,0.407619 -1.78683,0.07832 -2.18853,-0.705774 -0.40169,-0.784095 -0.0774,-1.787287 0.70578,-2.188523 0.78409,-0.401693 1.78683,-0.07832 2.18852,0.705773 0.40169,0.784095 0.0783,1.786832 -0.70577,2.188524 z"
       style="display:inline;fill:#f97316;stroke:none;stroke-width:1.355"
       id="path6" /><path
       d="m 352.29593,39.727761 c -0.37982,0.332819 -0.97055,0.253474 -1.2512,-0.176045 l -5.07338,-7.766779 -3.8139,3.342037 c -0.95817,0.839629 -1.07589,-0.502507 -1.08232,-0.555371 -0.75746,-3.633551 -1.84847,-9.033065 -3.32561,-16.217601 -0.122,-0.632358 0.48589,-1.157062 1.09215,-0.94772 0.17539,0.05904 0.32646,0.175302 0.42751,0.330072 l 5.07329,7.76819 3.82518,-3.351923 c 0.43546,-0.381589 0.85803,-0.384905 1.06551,0.337418 1.89671,9.397655 3.01468,14.871937 3.33199,16.44337 0.0623,0.291108 -0.0398,0.593342 -0.26922,0.794352 z"
       style="display:inline;fill:#f97316;stroke:none;stroke-width:1.449"
       id="path7" /><path
       d="m 176.27429,127.59631 c -0.19491,-0.30267 -0.60266,-0.39097 -0.90533,-0.19606 l -3.85652,2.48351 c -0.30267,0.19491 -0.39097,0.60265 -0.19606,0.90532 0.19546,0.30351 0.60266,0.39097 0.90533,0.19606 l 3.85652,-2.48351 c 0.30267,-0.19491 0.39151,-0.60181 0.19606,-0.90532 z m -2.11977,7.59998 c 0.19492,0.30267 0.60266,0.39098 0.90533,0.19606 l 3.85652,-2.4835 c 0.30267,-0.19492 0.39097,-0.60266 0.19606,-0.90533 -0.19546,-0.30351 -0.6032,-0.39181 -0.90587,-0.1969 l -3.85652,2.48351 c -0.30267,0.19491 -0.39097,0.60265 -0.19552,0.90616 z m -5.42672,-5.36645 c 0.35299,0.0772 0.5766,0.4244 0.50027,0.77686 l -0.82269,3.84231 c -0.0763,0.35245 -0.42356,0.57606 -0.7819,0.50352 l -1.92363,-0.42165 c -0.49205,-0.10656 -0.68311,-0.7043 -0.34543,-1.07757 0.15668,-0.17227 0.39395,-0.24894 0.62201,-0.19955 l 1.28596,0.27921 0.6936,-3.2061 c 0.0745,-0.34416 0.42765,-0.57156 0.77181,-0.49703 z m 2.84643,4.40901 c 0.35384,0.0766 0.57745,0.42386 0.50028,0.77685 l -0.82186,3.84178 c -0.0772,0.35299 -0.42356,0.57606 -0.78274,0.50406 l -1.93246,-0.42428 c -0.49151,-0.10572 -0.68311,-0.70431 -0.34489,-1.07674 0.15614,-0.17311 0.39395,-0.24894 0.62201,-0.19955 l 1.28542,0.27837 0.69414,-3.20526 c 0.0745,-0.34416 0.42765,-0.57156 0.7801,-0.49523 z"
       style="display:inline;fill:#f97316;stroke:none;stroke-width:0.655"
       id="path8" /><path
       d="m 230.44562,61.848326 -1.11669,-0.528184 c -3.95621,-1.864899 -6.56865,-3.101512 -7.26039,-5.369358 -0.56746,-1.86038 0.44507,-3.754181 2.29971,-4.31989 1.04736,-0.31947 2.20113,-0.139247 3.0904,0.424849 0.42304,-0.964381 1.27982,-1.757868 2.32622,-2.077046 1.85369,-0.565417 3.75272,0.440288 4.32018,2.300668 0.69175,2.267847 -0.78769,4.752578 -3.0286,8.507744 z"
       style="display:inline;fill:#f97316;stroke:none;stroke-width:0.63"
       id="path9" /><path
       d="m 277.83328,17.108945 c 0,0 -6.38003,2.349567 -8.44406,11.190188 -1.58265,6.784457 -0.98196,12.119379 -0.98196,12.119379 l 1.24097,-1.491959 c 0.31175,-2.545792 0.56723,-3.649123 1.21085,-5.340691 2.32701,-0.273267 4.45779,-1.262768 5.41137,-4.226322 -1.83039,0.235355 -3.09554,0.896834 -4.94346,1.913008 1.54116,-2.400261 2.88213,-3.356764 5.06807,-3.896067 l 0.12475,-1.985291 c -1.59223,0.346158 -2.5843,0.739751 -3.89899,1.691626 1.12981,-1.820646 1.98055,-2.934205 4.02268,-3.674294 l 0.31927,-2.000445 c -1.31386,0.451861 -2.02362,0.916899 -3.33659,1.898457 0.811,-1.752782 1.78506,-2.803504 3.49172,-3.65332 0,0 0.20299,-1.910937 0.71538,-2.544269 z"
       style="display:inline;fill:#f97316;stroke:none;stroke-width:0.889"
       id="path10" /><path
       d="m 205.03017,89.861246 c 1.63266,1.363225 3.94366,2.259406 4.16148,2.343448 l -0.62129,1.587791 c -0.18043,0.456035 -0.76556,0.58591 -1.1235,0.251242 l -2.153,-2.018839 c -0.33631,-0.315353 -0.49641,-0.782448 -0.42118,-1.243104 z m 7.00816,-1.258914 c 0.20121,-0.214578 0.24737,-0.521221 0.11395,-0.781067 -0.40065,-0.79153 -1.3357,-2.489352 -2.488,-3.568872 -3.28366,-3.079044 -5.87619,-3.022683 -6.97861,-2.800133 -0.27825,0.05897 -0.48909,0.284868 -0.5301,0.565331 -0.15126,1.114438 -0.0409,3.70523 3.24274,6.784274 1.1523,1.07952 2.9055,1.897589 3.72136,2.253549 0.26785,0.11545 0.5777,0.04345 0.77213,-0.163903 z m -1.33374,-4.792606 c 1.46531,1.541697 2.50913,3.790307 2.60599,4.002303 l 1.54456,-0.72302 c 0.44453,-0.208396 0.53554,-0.800628 0.17857,-1.136327 l -2.15301,-2.018839 c -0.33631,-0.315353 -0.81272,-0.445106 -1.26659,-0.340464 z m 1.99618,5.977925 c 0.67728,-0.157851 1.38876,0.03238 1.89632,0.50831 0.55089,0.516559 0.99894,2.160007 1.24139,3.227766 0.10632,0.474828 -0.30287,0.911205 -0.78451,0.836648 -1.08113,-0.173338 -2.74975,-0.507877 -3.30086,-1.031433 -0.50653,-0.474964 -0.74311,-1.173721 -0.6281,-1.859772 0.12585,-0.815467 0.7701,-1.50253 1.57576,-1.681519 z m -5.91847,-2.626119 c -0.7626,0.02453 -1.40634,-0.579095 -1.43086,-1.341701 -0.0245,-0.761606 0.57912,-1.405341 1.34173,-1.429866 0.76161,-0.02449 1.40534,0.579127 1.42983,1.340733 0.0245,0.762606 -0.57909,1.406341 -1.3407,1.430834 z"
       style="display:inline;fill:#f97316;stroke:none;stroke-width:0.693"
       id="path11" /><path
       fill-rule="evenodd"
       d="m 308.90472,89.045355 c 0.20242,-1.725165 -1.01788,-3.269896 -2.74305,-3.472316 -2.38593,-0.28599 -4.18395,2.114836 -3.23884,4.323019 0.21543,0.506557 0.56358,0.946123 1.00628,1.274952 l -0.0549,0.467791 c -0.12641,0.802739 -0.53619,1.480603 -1.23088,2.029388 -0.69468,0.548784 -1.44689,0.789768 -2.25797,0.725815 -1.29387,-0.119595 -2.33058,-0.01973 -3.19083,0.335445 l 0.86783,-7.396261 c 2.20357,-0.948673 2.55825,-3.928644 0.63349,-5.364728 -0.44071,-0.328597 -0.96112,-0.535654 -1.50761,-0.597761 -1.72715,-0.202653 -3.25599,1.019512 -3.4583,2.743685 -0.1245,1.104013 0.34799,2.191483 1.23964,2.855917 l -1.19611,10.194069 c -0.97946,0.435828 -1.73373,1.355194 -1.86693,2.490406 -0.20231,1.724174 1.01788,3.269894 2.74304,3.472314 1.72418,0.20231 3.26902,-1.01899 3.47133,-2.74316 0.0967,-0.824346 -0.12849,-1.590813 -0.57338,-2.209876 0.15,-0.07704 0.8197,-0.550225 1.00248,-0.623424 0.40738,-0.12538 0.90103,-0.162104 1.48999,-0.093 1.64188,0.114114 3.11312,-0.342548 4.50249,-1.440118 1.38938,-1.097569 2.22524,-2.858158 2.49143,-4.466093 l -0.0308,-0.0036 c 1.0141,-0.447874 1.76838,-1.367239 1.90158,-2.502452 z m -11.84835,-6.430548 c 1.02596,0.120379 1.76499,1.072991 1.64647,2.083062 -0.11863,1.011064 -1.07398,1.764869 -2.08406,1.646354 -1.01106,-0.118632 -1.76498,-1.072991 -1.64635,-2.084055 0.11852,-1.010071 1.07288,-1.763993 2.08394,-1.645361 z m -2.26286,19.285703 c -1.02497,-0.12026 -1.76475,-1.07498 -1.64612,-2.086045 0.11828,-1.008085 1.07276,-1.762999 2.08383,-1.644368 1.01007,0.118515 1.76486,1.073985 1.64658,2.082073 -0.11863,1.01106 -1.07422,1.76685 -2.08429,1.64834 z m 10.78281,-11.338694 c -1.02596,-0.12038 -1.76487,-1.073985 -1.64635,-2.084055 0.11851,-1.010071 1.07387,-1.763876 2.08394,-1.645361 1.00908,0.118398 1.763,1.072758 1.64448,2.082829 -0.11851,1.010071 -1.07299,1.764986 -2.08207,1.646587 z"
       style="display:inline;fill:#f97316;stroke:none;stroke-width:1.565"
       id="path12" /></g></svg>
